<?xml version="1.0" encoding="UTF-8" standalone="no"?>
<!-- Created with Inkscape (http://www.inkscape.org/) -->

<svg
   xmlns:dc="http://purl.org/dc/elements/1.1/"
   xmlns:cc="http://creativecommons.org/ns#"
   xmlns:rdf="http://www.w3.org/1999/02/22-rdf-syntax-ns#"
   xmlns:svg="http://www.w3.org/2000/svg"
   xmlns="http://www.w3.org/2000/svg"
   xmlns:sodipodi="http://sodipodi.sourceforge.net/DTD/sodipodi-0.dtd"
   xmlns:inkscape="http://www.inkscape.org/namespaces/inkscape"
   width="210mm"
   height="297mm"
   viewBox="0 0 210 297"
   version="1.1"
   id="svg3668"
   inkscape:version="0.92.3 (2405546, 2018-03-11)"
   sodipodi:docname="goldholmes.svg">
  <defs
     id="defs3662" />
  <sodipodi:namedview
     id="base"
     pagecolor="#ffffff"
     bordercolor="#666666"
     borderopacity="1.0"
     inkscape:pageopacity="0.0"
     inkscape:pageshadow="2"
     inkscape:zoom="0.35"
     inkscape:cx="400"
     inkscape:cy="560"
     inkscape:document-units="mm"
     inkscape:current-layer="layer1"
     showgrid="false"
     inkscape:window-width="3200"
     inkscape:window-height="1613"
     inkscape:window-x="0"
     inkscape:window-y="60"
     inkscape:window-maximized="1" />
  <metadata
     id="metadata3665">
    <rdf:RDF>
      <cc:Work
         rdf:about="">
        <dc:format>image/svg+xml</dc:format>
        <dc:type
           rdf:resource="http://purl.org/dc/dcmitype/StillImage" />
        <dc:title></dc:title>
      </cc:Work>
    </rdf:RDF>
  </metadata>
  <g
     inkscape:label="Layer 1"
     inkscape:groupmode="layer"
     id="layer1">
    <path
       style="fill:#ffcc00;fill-opacity:0.72941176;stroke-width:0.2009588"
       d="m -0.69061534,296.57617 c 0.002769,-0.89572 0.91189458,-15.2419 1.09104616,-17.22372 1.60132368,-17.71323 5.07599198,-30.33605 11.55574518,-41.98 2.977454,-5.35041 5.590056,-9.08075 12.010369,-17.14894 4.441976,-5.58206 6.966171,-9.1626 8.121761,-11.52065 0.440447,-0.89876 0.661896,-1.73155 0.859563,-3.23249 0.146454,-1.11205 0.481461,-2.75712 0.744478,-3.6558 3.037387,-10.37803 14.67509,-28.80552 21.798772,-34.51687 1.477694,-1.18471 2.756177,-1.74781 3.968285,-1.74781 2.200773,0 3.026738,-1.39648 3.61599,-6.11353 0.928485,-7.43268 -1.257823,-15.79574 -7.600663,-29.07398 -2.32174,-4.86041 -5.469502,-11.07767 -5.856991,-11.56836 -0.331394,-0.41952 -0.565617,-0.28054 -4.92399,2.91978 -5.285842,3.8816 -9.222563,6.19881 -10.531278,6.19881 -1.795305,0 -2.659815,-2.88747 -2.2192,-7.41213 0.411894,-4.2297 1.340182,-8.13571 3.822291,-16.08331 3.300752,-10.568829 3.541642,-12.359407 4.614016,-34.296689 0.735258,-15.040978 1.615176,-20.620711 4.19687,-26.613321 1.981198,-4.598738 5.043195,-9.469224 9.03536,-14.371795 3.184922,-3.911283 6.082743,-6.814761 10.284465,-10.304671 4.628917,-3.844708 5.6739,-5.279031 4.632688,-6.358687 -0.961904,-0.997425 -1.130755,-2.5441784 -0.441151,-4.0410011 0.616025,-1.3371196 1.307458,-1.5451237 3.629094,-1.0918387 3.239059,0.6324626 3.728534,0.3131427 5.243119,-3.4202058 1.859761,-4.58419606 3.865393,-5.7062769 6.80872,-3.80927488 1.238201,0.79804229 1.854886,1.46302028 1.854886,2.00008168 0,0.2166262 -0.417282,0.9757187 -0.927333,1.6871533 -2.545949,3.5512539 -1.591188,3.8151089 6.667644,1.842395 6.022981,-1.4386124 7.670036,-1.6404393 13.481249,-1.651721 5.41601,-0.00858 6.63401,0.1158199 10.95643,1.1370085 7.58258,1.7912627 15.25265,6.278084 19.99546,11.696912 2.09664,2.3955 4.72283,5.959323 7.98753,10.839418 5.43881,8.129915 7.43231,10.910496 10.64564,14.84863 3.56318,4.366927 5.36316,6.196152 9.53032,9.685165 10.45116,8.750281 15.04598,14.569847 14.14646,17.917216 -0.23577,0.876885 -1.13873,1.75806 -2.17636,2.123537 -1.19768,0.42167 -5.31223,0.705171 -12.78611,0.880359 -7.86424,0.184455 -8.6688,0.286547 -8.88598,1.1268 -0.0583,0.225635 0.10164,1.016341 0.35548,1.757032 0.75715,2.2092 0.92412,5.110834 0.55438,9.630943 -0.3402,4.157592 -0.27977,5.342173 0.38296,7.516756 0.63844,2.094968 1.18348,3.20521 5.42309,11.047078 3.92406,7.25818 6.54043,12.53167 7.08287,14.27601 0.28221,0.90768 0.28187,1.00755 -0.008,1.54581 -0.49584,0.92939 -2.29665,2.20675 -4.52822,3.21203 -3.76096,1.69419 -4.78234,2.79808 -4.54023,4.90703 0.0632,0.55118 0.54816,2.15468 1.07753,3.56327 1.47157,3.91587 1.56644,4.63159 0.75972,5.73248 -0.30213,0.41224 -0.33112,0.5921 -0.16627,1.03612 0.23962,0.64606 1.95581,2.15833 3.94059,3.47241 4.11275,2.72306 6.8192,5.88455 9.90696,11.57277 2.45437,4.52136 4.19573,9.08685 6.4176,16.82567 1.08551,3.78088 2.91615,8.37023 4.01591,10.06786 1.68488,2.60074 3.68276,3.81132 5.30487,3.21447 1.42373,-0.52386 2.04667,-2.20011 2.81169,-7.5657 0.38735,-2.71672 0.47335,-3.03231 1.01255,-3.71551 1.30393,-1.65224 3.46445,-2.2331 7.60271,-2.04405 3.03801,0.13907 5.88833,0.74201 7.10339,1.50334 1.10844,0.6945 1.34287,1.4635 1.31992,4.32996 -0.0315,4.1173 -1.08283,8.99796 -2.97018,13.80775 -2.622,6.68195 -5.76595,10.27039 -9.9439,11.34975 -1.69872,0.43886 -5.50201,0.44329 -7.19454,0.008 -5.61991,-1.44415 -9.12415,-7.47554 -13.00389,-22.38207 -3.8423,-14.76259 -4.89492,-18.3603 -6.69244,-22.87333 -1.84555,-4.63366 -3.95379,-7.85143 -6.48372,-9.896 -1.79158,-1.44783 -2.48843,-1.69655 -3.34873,-1.19522 -0.81322,0.47396 -2.86115,3.37877 -3.5027,4.96833 -0.64553,1.59948 -0.75081,4.22023 -0.34544,8.59753 0.4373,4.72133 0.41505,6.78379 -0.087,8.05729 -0.47995,1.21766 -2.55319,3.47477 -4.15456,4.52299 -2.11034,1.38143 -2.51466,1.42617 -13.24626,1.46537 -6.41009,0.0257 -10.16283,0.12438 -11.06146,0.29771 -4.70431,0.90683 -7.03903,2.35067 -9.34775,5.78078 -0.82241,1.22191 -4.61508,8.42883 -4.61508,8.76971 0,0.0519 1.15918,0.79282 2.57596,1.64589 5.13602,3.09261 5.99228,4.9822 8.40254,18.54278 1.30976,7.36898 3.04294,12.05505 7.96525,21.53642 3.29466,6.34611 4.26719,8.4875 4.26719,9.39548 0,0.26467 -0.14879,0.31271 -0.68001,0.21791 -2.6413,-0.46946 -2.58427,-0.47172 -2.58074,0.1016 0.007,0.8439 0.83009,2.46204 3.58167,7.02611 4.45871,7.39584 6.9288,12.29176 8.29521,16.44197 3.13896,9.53387 8.68098,28.21083 9.69375,32.66853 l 0.33846,1.48969 -2.0254,0.11921 c -1.11399,0.0656 -36.35902,0.18058 -78.322321,0.25608 -73.9811324,0.13261 -76.29650567,0.12405 -76.29511903,-0.27281 z"
       id="path3651"
       inkscape:connector-curvature="0" />
  </g>
</svg>
