<svg xmlns="http://www.w3.org/2000/svg" xmlns:xlink="http://www.w3.org/1999/xlink" version="1.1" x="0px" y="0px" viewBox="0 0 50 62.5" enable-background="new 0 0 50 50" xml:space="preserve"><path fill-rule="evenodd" clip-rule="evenodd" d="M38.223,42.65c0-0.55-4.151-0.997-9.477-1.058c0-0.237-0.043-0.474-0.155-0.689  l-4.933-9.568v-1.208h0.522c0.41,0,0.745-0.335,0.745-0.745v-2.609c0-0.409-0.334-0.743-0.745-0.743h-1.206  c0.502-1.758,1.192-4.265,2.427-7.37c0.443-1.109,0.924-2.248,1.458-3.384c-0.243,0.079-0.813,0.073-1.023-0.061  c0.24-0.027,0.926-0.158,1.175-0.261c1.972-4.101,4.673-8.074,8.755-10.015c-1.389-0.914-2.759-1.278-4.037-1.212  c-0.507,0.228-0.947,0.516-1.261,0.875c0.056-0.255,0.177-0.504,0.361-0.753c-1.91,0.419-3.569,1.816-4.717,3.785  c-0.036,0.717,0.049,1.403,0.31,1.932c-0.322-0.212-0.58-0.586-0.765-1.063c-0.086,0.179-0.165,0.361-0.24,0.546  c-1.188,2.901-2.691,7.685-3.026,11.103c0.234,0.607,0.395,1.029,0.799,1.388c-0.325-0.079-0.581-0.216-0.863-0.486  c-0.042,1.215,0.113,2.187,0.547,2.716c-0.134,0.723-0.296,1.491-0.467,2.26h-5.493c-0.41,0-0.744,0.334-0.744,0.743v2.609  c0,0.41,0.334,0.745,0.744,0.745h0.522v1.208l-4.933,9.568c-0.24,0.459-0.218,1.012,0.049,1.455c0.27,0.44,0.753,0.711,1.27,0.711  h3.925c1.625,0.383,5.405,0.65,9.812,0.65C33.451,43.72,38.223,43.242,38.223,42.65z M31.386,5.592  c-2.71,1.853-6.865,10.589-8.059,16.768C23.834,16.6,28.166,6.036,31.386,5.592z M14.375,40.834h-0.462  c-0.082,0-0.155-0.04-0.197-0.106c-0.043-0.066-0.046-0.152-0.015-0.222l4.292-8.964c0.015-0.03,0.021-0.063,0.021-0.101v-1.688  c0-0.152-0.125-0.28-0.279-0.28H17.34c-0.243,0-0.444-0.197-0.444-0.442v-2.255h0.608v1.137c0,0.246,0.197,0.443,0.44,0.443h0.325  c0.246,0,0.444,0.2,0.444,0.443v2.649c0,0.03-0.006,0.061-0.019,0.091L14.582,40.7C14.545,40.782,14.463,40.834,14.375,40.834z"/><text x="0" y="65" fill="#000000" font-size="5px" font-weight="bold" font-family="'Helvetica Neue', Helvetica, Arial-Unicode, Arial, Sans-serif">Created by Kick</text><text x="0" y="70" fill="#000000" font-size="5px" font-weight="bold" font-family="'Helvetica Neue', Helvetica, Arial-Unicode, Arial, Sans-serif">from the Noun Project</text></svg>